<?xml version="1.0" encoding="utf-8"?>
<!-- Generator: Adobe Illustrator 15.1.0, SVG Export Plug-In  -->
<!DOCTYPE svg PUBLIC "-//W3C//DTD SVG 1.1//EN" "http://www.w3.org/Graphics/SVG/1.1/DTD/svg11.dtd" [
	<!ENTITY ns_flows "http://ns.adobe.com/Flows/1.0/">
]>
<svg version="1.1"
	 xmlns="http://www.w3.org/2000/svg" xmlns:xlink="http://www.w3.org/1999/xlink" xmlns:a="http://ns.adobe.com/AdobeSVGViewerExtensions/3.0/"
	 x="0px" y="0px" width="125px" height="129px" viewBox="-10.363 -12.305 125 129" enable-background="new -10.363 -12.305 125 129"
	 xml:space="preserve">
<defs>
</defs>
<g>
	<defs>
		<path id="SVGID_1_" d="M57.273,0.012l-0.941,0.023c-0.63,0.015-1.261,0.03-1.896,0.046l-0.119,0.003c0.099,0.001,0.011,0-0.095,0
			c-0.102-0.001-0.218-0.002-0.205,0L53.95,0.088l-0.269,0.02l-0.539,0.041l-1.078,0.083c-0.721,0.044-1.44,0.124-2.161,0.224
			c-0.721,0.1-1.445,0.172-2.166,0.299c-0.718,0.128-1.439,0.258-2.163,0.389C42.7,1.734,39.835,2.514,37.04,3.533
			c-2.79,1.035-5.512,2.277-8.127,3.715c-2.613,1.443-5.093,3.119-7.437,4.939c-2.348,1.818-4.53,3.828-6.523,5.979
			c-1.992,2.151-3.837,4.409-5.437,6.801c-1.606,2.384-3.019,4.855-4.233,7.374c-1.185,2.535-2.167,5.109-2.964,7.684
			c-0.77,2.586-1.329,5.169-1.73,7.711c-0.147,1.279-0.354,2.533-0.415,3.786c-0.041,0.626-0.093,1.241-0.124,1.862
			c-0.014,0.629-0.027,1.256-0.04,1.877c-0.042,1.285,0.054,2.281,0.073,3.543c0.118,1.168,0.235,2.32,0.349,3.453
			c0.066,0.563,0.1,1.123,0.191,1.673c0.106,0.548,0.211,1.089,0.315,1.626c0.216,1.072,0.397,2.125,0.634,3.143
			c0.291,1.004,0.577,1.986,0.856,2.947c0.14,0.479,0.277,0.949,0.413,1.416c0.177,0.455,0.352,0.903,0.523,1.346
			c0.345,0.881,0.681,1.738,1.008,2.572c0.149,0.421,0.354,0.812,0.549,1.203c0.192,0.388,0.382,0.771,0.57,1.146
			c0.374,0.749,0.735,1.476,1.085,2.178c0.394,0.676,0.798,1.313,1.172,1.932c0.378,0.615,0.74,1.205,1.086,1.77
			c0.345,0.563,0.759,1.051,1.103,1.539c0.719,0.96,1.334,1.831,1.91,2.55c0.609,0.688,1.128,1.273,1.548,1.751
			c0.84,0.949,1.288,1.457,1.288,1.457s-0.386-0.555-1.11-1.598c-0.362-0.521-0.809-1.165-1.334-1.921
			c-0.486-0.777-0.988-1.703-1.576-2.715c-0.279-0.514-0.62-1.023-0.891-1.612c-0.272-0.588-0.557-1.203-0.853-1.844
			c-0.292-0.643-0.612-1.301-0.914-1.995c-0.257-0.713-0.522-1.454-0.798-2.218c-0.137-0.38-0.276-0.768-0.417-1.158
			c-0.142-0.393-0.294-0.786-0.389-1.207c-0.216-0.829-0.44-1.684-0.67-2.559c-0.114-0.437-0.229-0.877-0.347-1.324
			C5.309,71.9,5.231,71.438,5.153,70.97c-0.157-0.931-0.317-1.88-0.481-2.853c-0.107-0.979-0.159-1.986-0.244-3
			c-0.04-0.508-0.079-1.02-0.119-1.537c-0.025-0.517,0.008-1.043,0.008-1.57c0.016-1.051,0.032-2.119,0.048-3.206
			c0.107-0.993,0.152-2.292,0.322-3.321c0.075-0.537,0.15-1.077,0.227-1.621c0.103-0.551,0.206-1.105,0.311-1.664
			c0.183-1.118,0.508-2.225,0.768-3.348c0.628-2.229,1.392-4.456,2.332-6.645c0.968-2.178,2.087-4.316,3.363-6.381
			c1.307-2.051,2.765-4.021,4.365-5.885c1.591-1.869,3.375-3.583,5.245-5.18c1.871-1.597,3.868-3.044,5.967-4.302
			c2.095-1.261,4.26-2.38,6.494-3.288c2.235-0.904,4.513-1.631,6.801-2.188c2.294-0.539,4.601-0.877,6.878-1.073
			c0.571-0.034,1.139-0.067,1.706-0.103c0.565-0.035,1.133-0.017,1.695-0.027c0.562-0.015,1.121-0.012,1.679,0.024l0.833,0.034
			l0.415,0.018l0.207,0.007l0.052,0.003c0.025,0-0.03,0-0.094-0.002c-0.104,0-0.23-0.002-0.087,0.002l0.119,0.01
			c0.631,0.059,1.26,0.116,1.887,0.176l0.938,0.088c0.304,0.029,0.652,0.049,0.867,0.104c0.488,0.092,0.975,0.182,1.457,0.271
			l0.719,0.127c0.233,0.035,0.479,0.085,0.74,0.155c1.018,0.271,2.032,0.46,3.006,0.769c0.967,0.328,1.94,0.575,2.86,0.942
			c3.712,1.366,6.987,3.151,9.78,5.079c2.784,1.956,5.064,4.063,6.927,6.041c0.454,0.504,0.897,0.991,1.322,1.461
			c0.392,0.498,0.771,0.976,1.135,1.438c0.758,0.889,1.306,1.822,1.874,2.6c1.04,1.625,1.811,2.92,2.25,3.851
			c0.471,0.908,0.719,1.393,0.719,1.393l17.598-9.901c0,0-0.451-0.672-1.296-1.928c-0.821-1.27-2.161-3.043-3.955-5.197
			c-0.944-1.042-1.916-2.251-3.144-3.412c-0.599-0.592-1.223-1.205-1.87-1.844c-0.684-0.596-1.393-1.213-2.124-1.853
			c-2.969-2.49-6.526-5.04-10.697-7.272C80.776,4.754,76,2.86,70.789,1.621c-1.294-0.335-2.64-0.534-3.978-0.804
			c-1.346-0.246-2.729-0.36-4.109-0.54c-0.337-0.046-0.697-0.076-1.074-0.093l-1.116-0.062c-0.743-0.035-1.489-0.073-2.239-0.11
			C58.122,0.003,57.991,0,57.868,0C57.658,0,57.473,0.01,57.273,0.012"/>
	</defs>
	<use xlink:href="#SVGID_1_"  overflow="visible" fill="#2B3990"/>
	<clipPath id="SVGID_2_">
		<use xlink:href="#SVGID_1_"  overflow="visible"/>
	</clipPath>
</g>
<path fill="#F7941E" d="M15.804,52.795c0.418,5.984,5.608,10.494,11.59,10.076c5.984-0.418,10.494-5.607,10.076-11.59
	c-0.015-0.217-0.048-0.427-0.075-0.639c-0.003-0.204,0.002-0.406-0.012-0.611c-0.068-0.971-0.273-1.896-0.575-2.775
	c0.666-0.392,1.344-0.797,2.044-1.24c1.313-0.811,2.667-1.707,4.045-2.67c1.367-0.977,2.746-2.033,4.131-3.131
	s2.815-2.18,4.235-3.277c2.861-2.162,5.734-4.308,8.397-6.363c2.675-2.039,5.151-3.97,7.276-5.622
	c4.258-3.293,7.066-5.532,7.066-5.532c0.072-0.059,0.093-0.162,0.043-0.243c-0.027-0.045-0.07-0.073-0.117-0.085
	c-0.003-0.007,0-0.014-0.004-0.021c-0.055-0.089-0.17-0.116-0.257-0.062c0,0-3.582,1.442-8.132,4.317
	c-2.28,1.432-5.047,2.988-7.877,4.805c-2.843,1.8-5.843,3.766-8.853,5.715c-1.518,0.959-3.022,1.933-4.528,2.859
	c-1.504,0.926-2.97,1.859-4.357,2.811c-1.375,0.965-2.681,1.932-3.892,2.888c-0.492,0.382-0.955,0.757-1.415,1.13
	c-2.16-2.398-5.356-3.82-8.825-3.578c-5.983,0.419-10.493,5.607-10.075,11.592c0.015,0.211,0.048,0.414,0.075,0.621
	C15.794,52.377,15.79,52.584,15.804,52.795"/>
<text transform="matrix(1 0 0 1 15.0649 89.4902)"><tspan x="0" y="0" fill="#F7941E" font-family="'FranklinGothic-Book'" font-size="15">SMART</tspan><tspan x="45.198" y="0" font-family="'FranklinGothic-Book'" font-size="15">  </tspan><tspan x="52.697" y="0" fill="#283B8F" font-family="'FranklinGothic-Book'" font-size="15">GAUGE</tspan></text>
</svg>
